<svg id="Calque_1" data-name="Calque 1" xmlns="http://www.w3.org/2000/svg" viewBox="0 0 69.59 69.56"><defs><style>.cls-1{fill:#364d5c;stroke:#f5dcd5;stroke-miterlimit:10;stroke-width:2px;}</style></defs><title>maquette aepc</title><path class="cls-1" d="M33.16,2a32.78,32.78,0,1,0,34.39,31A32.73,32.73,0,0,0,33.16,2Zm10,20.08c-1,0-2.07,0-3.11,0A2,2,0,0,0,38,24.23c-.23,3.63-.23,3.63,3.36,3.63,2.67,0,2.67,0,2.45,2.63-.1,1.18-.21,2.36-.29,3.54a1,1,0,0,1-1.14,1c-1.33,0-2.66,0-4,0a2.14,2.14,0,0,0-.35.15v12.9c0,1.82,0,3.64,0,5.45,0,.83-.32,1.11-1.12,1.09-2,0-4-.06-6,0-1.1.05-1.42-.36-1.41-1.4,0-5.6,0-11.19,0-16.79,0-1.52,0-1.5-1.47-1.49-3,0-2.52.13-2.55-2.45,0-1,0-2.07,0-3.11,0-1.5,0-1.52,1.58-1.53a8.27,8.27,0,0,1,1.22,0c1.11.17,1.32-.39,1.27-1.35-.06-1.14,0-2.3,0-3.44.22-5.1,3.08-7.89,8.17-8,1.78,0,3.56,0,5.34,0,.68,0,1.05.2,1.05.93,0,1.71,0,3.41,0,5.12C44.11,21.85,43.8,22.12,43.15,22.11Z"/></svg>