<svg id="Calque_1" data-name="Calque 1" xmlns="http://www.w3.org/2000/svg" viewBox="0 0 181.99 181.42"><defs><style>.cls-1{fill:#fff;}.cls-2{fill:#054872;}</style></defs><title>maquette aepc</title><path class="cls-1" d="M130.36,19l-.15.16ZM122,20.88a7.61,7.61,0,0,0,0,1.72,5,5,0,0,0,.57,1.72,5.58,5.58,0,0,0,1.3,1.53A7.44,7.44,0,0,0,126,27.08a2.88,2.88,0,0,0,1.47.3,1,1,0,0,0,.86-.59,1.34,1.34,0,0,0,.08-.45.86.86,0,0,0-.18-.55,2,2,0,0,0-.82-.51,3.67,3.67,0,0,1-2.44-2.4,4,4,0,0,1-.15-1.13,8.64,8.64,0,0,1,.5-2.75l1,.38,1.9.63h-.05a1,1,0,0,0,.61,0l.5-.17.48-.24.42-.45v-.61a1.06,1.06,0,0,0-.59-.52l-2.94-1.19a2.15,2.15,0,0,0-.47-.09,14.78,14.78,0,0,1,1-1.9,6.14,6.14,0,0,1,1.22-1.4,1.7,1.7,0,0,1,1.84-.29l1.28.51a.91.91,0,0,0,1.25-.66,1.17,1.17,0,0,0-.24-1.25,4,4,0,0,0-1.36-.77,4.72,4.72,0,0,0-2.14-.33,4.45,4.45,0,0,0-2.27.88,9.24,9.24,0,0,0-2.1,2.31,17.92,17.92,0,0,0-1.89,3.94l-.47,1.45a9.27,9.27,0,0,0-.33,1.65m38.6,27.8-.78.52a.57.57,0,0,1-.38.16,1.14,1.14,0,0,0-.86.16l-.31.38-.26.55-.16.54a1,1,0,0,0,.11.78,1.9,1.9,0,0,0,.77.7l0,0,.11.09.2.24.44.64.73,1.08.68,1.06.41.66.19.34h0l0,0,.15.56.24.53a.79.79,0,0,0,.85.3l.65-.16.63-.23.42-.22a.89.89,0,0,0,.15-1.27,1.55,1.55,0,0,0-.72-.56,1.09,1.09,0,0,1-.37-.28l-2.55-3.54-.19-.2.27-.18,1-.64,1.24-.8,1.3-.91,1.14-.88,1-.77,1.71-1.17,1.83-1.25a1.72,1.72,0,0,1,.46-.25l.61-.31a1,1,0,0,0,.4-.85c0-.05,0-.11,0-.17a2,2,0,0,0-.25-.77,1.34,1.34,0,0,0-.58-.43l-.72-.29-.76-.18a1,1,0,0,0-.78.12,1.45,1.45,0,0,0-.39.51,4.13,4.13,0,0,1-.46.6l-1.16,1.17c-.51.47-1.25,1.07-2.19,1.77l-2.78,2.06ZM150.32,36.54a7.11,7.11,0,0,0-.54,2.47v.23a5.47,5.47,0,0,0,.38,2,4.92,4.92,0,0,0,1.1,1.76,5.91,5.91,0,0,0,2,1.35,5.8,5.8,0,0,0,2.38.41,6.36,6.36,0,0,0,2.53-.67,8,8,0,0,0,2.46-1.9,10.66,10.66,0,0,0,1.83-2.59,7.23,7.23,0,0,0,.73-2.45,4.93,4.93,0,0,0-.29-2.21,5.26,5.26,0,0,0-1.12-1.78,6.06,6.06,0,0,0-2.63-1.67,5.77,5.77,0,0,0-2.7-.13,7.1,7.1,0,0,0-2.48,1,10,10,0,0,0-2,1.67,8.13,8.13,0,0,0-1.61,2.49m2.47,1.72a5.72,5.72,0,0,1,.64-1.53,7.2,7.2,0,0,1,.7-1,6.62,6.62,0,0,1,1.45-1.22,4.77,4.77,0,0,1,1.52-.63,3.18,3.18,0,0,1,1.44,0,2.67,2.67,0,0,1,1.23.75,3,3,0,0,1,.63,1,2.59,2.59,0,0,1,.15,1.26,4.71,4.71,0,0,1-.5,1.62,9,9,0,0,1-1.45,2A6,6,0,0,1,156.84,42a3.48,3.48,0,0,1-1.46.38,2.35,2.35,0,0,1-1.1-.25,3.11,3.11,0,0,1-.8-.57,2.67,2.67,0,0,1-.81-1.56,4.54,4.54,0,0,1,.12-1.73m-50-34h0Zm29.1,22.37a2.71,2.71,0,0,0-.68.71,1.14,1.14,0,0,0-.11.66l.15.48.28.44.33.3a1.2,1.2,0,0,0,1,.11,2.08,2.08,0,0,0,1-.68c.41-.48.84-1,1.28-1.67l1.28-1.87,1.14-1.73.25-.35s0,.13,0,.13l.41,1.27.6,1.51.87,2L141,30.51l1.76,3.54a1.34,1.34,0,0,1,.13.54l0,.67,0,.57a.45.45,0,0,0,0,.11.77.77,0,0,0,.35.7l.52.23.69.09a2.14,2.14,0,0,0,.74-.16,1.45,1.45,0,0,0,.7-.62l.35-.69.36-.82.47-1,.7-1.29,2.26-3.81,1.37-2.1.71-1,.37-.51a1,1,0,0,0-.06-1.13l-.51-.46-.52-.28-.62-.21a1.76,1.76,0,0,0-.68-.05.92.92,0,0,0-.71.48,1.08,1.08,0,0,0-.16.6V24l0,.42,0,.46a2,2,0,0,1-.22.61S147.56,28,147.56,28l-1.47,2.65-.42.71-.39.62-.45.66-.09.14c-.53-1-1-1.91-1.45-2.82-.53-1.11-1-2.29-1.47-3.5s-.88-2.53-1.28-3.92-.79-3-1.19-4.78L139,16.18l-.24-.88-.21-.48-.27-.27a1.51,1.51,0,0,0-1.12-.24,1.14,1.14,0,0,0-.85.51l-.15.47v.6l.12.93.25,1.47a6.42,6.42,0,0,1,.1.93,4.75,4.75,0,0,1-.06.78,5.6,5.6,0,0,1-.7,1.74,16.88,16.88,0,0,1-1.58,2.36,20.89,20.89,0,0,1-1.38,1.57ZM32,24.14a2.27,2.27,0,0,0,.68.31.31.31,0,0,1,.1.08l.3.45.78,1.2L35,27.91l1.77,2.88,1.25,2,.84,1.2a3.38,3.38,0,0,0,.62.66,1,1,0,0,0,.71.24l.48-.19a1.22,1.22,0,0,0,.44-1.31,7.11,7.11,0,0,0-1-2c-1.57-2.56-2.81-4.61-3.66-6.09S35,22.71,34.68,22.06a2.21,2.21,0,0,1-.24-.59,2.8,2.8,0,0,0-.3-.75,1,1,0,0,0-.9-.36,1.47,1.47,0,0,0-.87.24,1.53,1.53,0,0,0-.46.64l-.28.79-.15.83a1.28,1.28,0,0,0,.12.83Zm5.53-3.95a.9.9,0,0,0,1,.14l.45-.27h0l.32-.19,2-1.05c.27.51.82,1.5.82,1.5l1,2L44,24.38l.58,1.5.34,1,.25.69a3.07,3.07,0,0,0,.73,1,3.47,3.47,0,0,0,1.11.67,3.52,3.52,0,0,0,1.33.23A3.05,3.05,0,0,0,49.8,29a2.8,2.8,0,0,0,.78-.65,3.49,3.49,0,0,0,.56-.81V27.5a1.37,1.37,0,0,0-.08-1.05l-.24-.38a.66.66,0,0,0-.88-.23l-.65.44a1.93,1.93,0,0,1-.76.24A1.13,1.13,0,0,1,48,26.4a1.37,1.37,0,0,1-.43-.37,3,3,0,0,1-.36-.56l-1.33-2.89-1-2.3-.71-1.83-.36-1.09.27-.15.83-.46.8-.49.72-.47.39-.47.23-.56.1-.5-.07-.59A.76.76,0,0,0,46,13.29c-.77.4-1.54.85-2.28,1.32s-1.47.88-2.22,1.28L40,16.64l-1.09.5-.79.36-.58.27a1.22,1.22,0,0,0-.54.79,1.36,1.36,0,0,0,0,.94,2,2,0,0,0,.54.69M17.8,57.11l0,0,0,0ZM10.33,44l1.38.19a7.19,7.19,0,0,1,1.62.49A4.91,4.91,0,0,1,15,45.86a6.59,6.59,0,0,1,.88,1.23,18.25,18.25,0,0,1,1,1.82,19.57,19.57,0,0,1,.77,1.91,6.78,6.78,0,0,1,.35,1.44,3.88,3.88,0,0,0,.15.88l.29.52.52.25h.52l.5-.11.52-.33.39-.46.24-.46,0-.64-.19-.36c-.36-.56-.86-1.5-1.51-2.8l-2-3.79,2.6.11a17.89,17.89,0,0,0,2.47,0,9.76,9.76,0,0,0,1.84-.31,5.38,5.38,0,0,0,1.41-.63,5.62,5.62,0,0,0,1.06-.9,8.62,8.62,0,0,0,1.86-3.48,17.68,17.68,0,0,0,.7-4.54l0-1.08,1,.78,1.19.93,1.06.85a4.82,4.82,0,0,0,1,.69.91.91,0,0,0,1.13-.16l.3-.5.2-.57.1-.57a.94.94,0,0,0-.19-.72,2.07,2.07,0,0,0-.81-.48l-1-.37a8.27,8.27,0,0,1-1.15-.58A5.38,5.38,0,0,1,31,32.46c-.61-.64-1.16-1.26-1.62-1.83L28.22,29.1,27.45,28,27,27.3a.78.78,0,0,0-.67-.24l-.47.11-.44.24-.29.24a.89.89,0,0,0-.14.91,4.26,4.26,0,0,0,.47,1,10.55,10.55,0,0,1,1.26,3.37,15.47,15.47,0,0,1,.24,3.54,12.28,12.28,0,0,1-.53,3.07,5.54,5.54,0,0,1-1,2,2.07,2.07,0,0,1-.85.49,8.85,8.85,0,0,1-1.5.33,18,18,0,0,1-1.87.12l-2,0-1.9-.18-1.58-.24-2.64-.52-1.63-.24a3.34,3.34,0,0,0-1,0,1.18,1.18,0,0,0-.63.32l-.28.35-.29.43-.21.47a.78.78,0,0,0,.15.81,1.71,1.71,0,0,0,1.13.44M10,65.93a5.28,5.28,0,0,0,.65.88,1.24,1.24,0,0,1,.37.67,2.08,2.08,0,0,1,0,.66.9.9,0,0,0,.12.69,1.52,1.52,0,0,0,.56.44l.45.12a.68.68,0,0,0,.67-.4L13,68.7l.21-.54.22-.63.19-.55a1,1,0,0,0,0-.73,1.8,1.8,0,0,0-.56-.63l-.36-.43L12,64.33l-.68-.94-.65-.81-.21-.27a.15.15,0,0,1,0-.1l.12-.39L11,61l.45-.91L12,58.91l.65-1a2,2,0,0,1,.39-.5l.33,0h1l1.13,0,.74.07.7.05a1,1,0,0,0,.78-.36c.06-.08.28-.32.28-.32l.33-.46.32-.51.23-.4.14-.62v0a.91.91,0,0,0-.51-.79.79.79,0,0,0-.64,0l-.75.15-1.6.22c-.68.08-1.6.14-2.74.19-1.82.07-3.45.07-4.87,0L3.9,54.38a2.86,2.86,0,0,0-1,.13,1.27,1.27,0,0,0-.76.53L2,55.59v.6l.1.57a.9.9,0,0,0,.42.59l.37.11.63.08.07,0a4.94,4.94,0,0,1,1,.9c.44.49.92,1.07,1.41,1.71l1.49,2.09,1.39,2.05L10,65.93M6.81,57.34l-.09-.1H7l3.35,0-1.41,3-.4-.55Zm166.82,6.49h0Zm5.9-5.1a5.43,5.43,0,0,0-1.3-1.82,4.44,4.44,0,0,0-2.2-1,8.45,8.45,0,0,0-3,.07,16.16,16.16,0,0,0-4,1.41l-1.3.68a8.57,8.57,0,0,0-1.32.94,6.28,6.28,0,0,0-1.13,1.23,4.77,4.77,0,0,0-.74,1.65,6.24,6.24,0,0,0-.09,2,8.54,8.54,0,0,0,.71,2.46,3.26,3.26,0,0,0,.85,1.31.92.92,0,0,0,1.59-.57.17.17,0,0,0,0-.07,2.47,2.47,0,0,0-.25-.89,5.39,5.39,0,0,1-.49-2,3.11,3.11,0,0,1,.34-1.49A6.36,6.36,0,0,1,170,60.1l.48,1,.93,1.87,0-.05a1,1,0,0,0,.43.46l.46.25.5.19h.59l.4-.44a.73.73,0,0,0,.05-.3,1.34,1.34,0,0,0-.12-.52l-1.31-3a1.81,1.81,0,0,0-.28-.42,12.11,12.11,0,0,1,2-.6,5.15,5.15,0,0,1,1.79-.09,1.85,1.85,0,0,1,1,.39,2.25,2.25,0,0,1,.54.76l.57,1.32a.93.93,0,0,0,.51.53,1,1,0,0,0,.82-.07A1.15,1.15,0,0,0,180,60.3a4.88,4.88,0,0,0-.46-1.57M67,13.22l0,.22h0Zm11.48,3.09a6.38,6.38,0,0,0,1.54,2,5.19,5.19,0,0,0,3.57,1.2l1-.14,1-.25.9-.33.7-.4a4.16,4.16,0,0,0,.77-.65l.59-.71.43-.65a1.21,1.21,0,0,0,.19-.65,1.16,1.16,0,0,0-.31-.72.9.9,0,0,0-.75-.27,1.47,1.47,0,0,0-.87.5l-.82.76a5.25,5.25,0,0,1-1.08.74,2.87,2.87,0,0,1-1.3.38,2.24,2.24,0,0,1-1.41-.35,4.46,4.46,0,0,1-1.24-1.14,6.09,6.09,0,0,1-.88-1.55,5.27,5.27,0,0,1-.36-1.48v-1a9.91,9.91,0,0,1,.63-3,5,5,0,0,1,.78-1.39A4.13,4.13,0,0,1,82.8,6.16a3.78,3.78,0,0,1,1.7-.5.63.63,0,0,1,.35.06L85.2,6l.31.35a.78.78,0,0,0,.69.33,1.1,1.1,0,0,0,.6-.26L87.28,6l.37-.53a1.27,1.27,0,0,0,.18-.69A1.57,1.57,0,0,0,87,3.58a2.94,2.94,0,0,0-1.83-.36,10,10,0,0,0-1.54.27,7.93,7.93,0,0,0-1.77.68,8.39,8.39,0,0,0-1.69,1.19,6.54,6.54,0,0,0-1.42,1.85,9.1,9.1,0,0,0-.9,2.58,11.44,11.44,0,0,0-.21,2.44c0,.31,0,.63,0,1a7.69,7.69,0,0,0,.78,3.12m14,.76a4.49,4.49,0,0,0,1,1.45,5.31,5.31,0,0,0,1.67,1,7.68,7.68,0,0,0,2.4.47,3,3,0,0,0,1.48-.2,1,1,0,0,0,.65-.84v-.09a.93.93,0,0,0-.39-.83,1.79,1.79,0,0,0-.92-.22,3.51,3.51,0,0,1-3-1.48,6.62,6.62,0,0,1-.82-3.5c0-.1,0-.2,0-.3l1.09,0,2,0h0a1,1,0,0,0,.53-.19l.43-.32.38-.38.27-.57L99,10.52a1,1,0,0,0-.71-.3l-3.14-.16a2.44,2.44,0,0,0-.48,0A16.48,16.48,0,0,1,95.1,8a6.05,6.05,0,0,1,.75-1.73,1.85,1.85,0,0,1,.78-.72,2.09,2.09,0,0,1,.88-.17l1.38.07a.89.89,0,0,0,.67-.23,1.19,1.19,0,0,0,.32-.8,1.16,1.16,0,0,0-.61-1.12A3.67,3.67,0,0,0,97.76,3a4.79,4.79,0,0,0-2.13.38A4.62,4.62,0,0,0,93.74,5a9.31,9.31,0,0,0-1.33,2.88,18.59,18.59,0,0,0-.64,4.37l0,1.54a10.51,10.51,0,0,0,.17,1.67,7.56,7.56,0,0,0,.52,1.63M50.62,13.75a2.12,2.12,0,0,0,.59.46.29.29,0,0,1,.07.1l.21.51L52,16.17l.73,1.94,1.16,3.21.81,2.2.58,1.37a4.25,4.25,0,0,0,.47.78,1,1,0,0,0,.65.4l.51-.08a1.18,1.18,0,0,0,.69-1.18,6.87,6.87,0,0,0-.55-2.15c-1-2.86-1.8-5.14-2.34-6.78s-.91-2.84-1.08-3.56a2.09,2.09,0,0,1-.12-.63,2.84,2.84,0,0,0-.14-.79,1,1,0,0,0-.81-.56,1.54,1.54,0,0,0-.89,0,1.44,1.44,0,0,0-.59.52l-.43.71-.32.77a1.3,1.3,0,0,0,0,.84l.32.53m52.32-7.07.91,1.4,1.36,2.24,1.84,3.36c.7,1.32,1.49,2.92,2.36,4.76,0,0,.41.88.41.88l.22.52.08.25s.1.63.1.63l.29.39.3.25.4.2c.28.05.57-.07,1.09-.46L113.62,20l1.69-1.6,1.86-1.9,1.83-2,1.6-1.79,1.16-1.41a2.6,2.6,0,0,0,.57-1,1.06,1.06,0,0,0-.25-.83L121.56,9,121,8.51l-.6-.28a.8.8,0,0,0-.69.14,1.37,1.37,0,0,0-.45.77,8.19,8.19,0,0,1-.78,1.78,17.7,17.7,0,0,1-1.24,1.91,23.65,23.65,0,0,1-1.48,1.86c-.52.59-1,1.14-1.55,1.63l-1.41,1.26-.56.43c-.18-.4-.4-.84-.68-1.38L110.12,14l-1.6-3L107,8.16c-.43-.89-.79-1.68-1-2.34a3.53,3.53,0,0,1-.3-1.06.12.12,0,0,1,0,0,1.82,1.82,0,0,0,0-.32.89.89,0,0,0-.71-.91,1.4,1.4,0,0,0-.67.06l-.78.25-.76.42a1.22,1.22,0,0,0-.56.74,1.35,1.35,0,0,0,.15.85l.53.88M60.59,18.4a9,9,0,0,0,.64,1.54,7.08,7.08,0,0,0,1,1.38,4.27,4.27,0,0,0,1.41,1,5.05,5.05,0,0,0,1.89.45,7.91,7.91,0,0,0,2.42-.33,3,3,0,0,0,1.36-.67,1.06,1.06,0,0,0,.38-1,.94.94,0,0,0-.64-.75,1.84,1.84,0,0,0-.94.09,3.41,3.41,0,0,1-3.31-.43,6.85,6.85,0,0,1-1.86-3.37l1-.32,1.89-.66h0a1,1,0,0,0,.5-.37l.32-.44.25-.49.1-.63L66.6,13a.91.91,0,0,0-.77-.06l-3,.86a1.93,1.93,0,0,0-.43.22,14.17,14.17,0,0,1-.23-2.11v-.06a6.89,6.89,0,0,1,.21-1.89,1.86,1.86,0,0,1,1.33-1.38L65,8.17a1,1,0,0,0,.58-.45,1,1,0,0,0,.11-.5,1.16,1.16,0,0,0,0-.36A1.1,1.1,0,0,0,64.75,6a3.78,3.78,0,0,0-1.52.22,4.84,4.84,0,0,0-1.92,1A4.91,4.91,0,0,0,60,9.38a9.9,9.9,0,0,0-.43,3.18,18.56,18.56,0,0,0,.64,4.37Z"/><circle class="cls-1" cx="88.72" cy="102.92" r="76.5"/><path class="cls-2" d="M60,152.66c7.95,0,14.29-6.33,23-6.6,8.76.27,15.1,6.6,23,6.6,8.12,0,12.23-8,18.77-8s13.54,6.54,18.77,6.54a15.55,15.55,0,0,0,5.56-1.37c1.33-1.7,2.6-3.45,3.79-5.26a13.5,13.5,0,0,1-3.83.75c-5.23,0-9.24-6-15.79-6s-13.63,8.05-21.76,8.05S101.07,141,92,141c0,0-2.67-.18-3.46-.18s-3.47.18-3.47.18c-9.06,0-11.45,6.39-19.58,6.39s-15.22-8.05-21.76-8.05-10.55,6-15.79,6a13,13,0,0,1-3.55-.67c1.12,1.7,2.32,3.33,3.56,4.94,4.17-1.94,8.81-4.93,13.25-4.93C47.75,144.61,51.86,152.66,60,152.66Z"/><path class="cls-2" d="M80.75,162.26c8.76.18,15.1,4.39,23,4.39,8.12,0,12.24-5.36,18.77-5.36,4,0,8.1,1.6,11.91,2.85a76.54,76.54,0,0,0,6.49-5.41,26,26,0,0,0-8.73-1.78c-6.54,0-13.63,4.49-21.76,4.49S100,157.88,90.9,157.88c0,0-2.68-.1-3.47-.1s-3.47.1-3.47.1c-9.06,0-11.46,3.56-19.58,3.56S49.16,157,42.62,157a22.68,22.68,0,0,0-6.92,1.19c1.14,1.09,2.3,2.16,3.5,3.18,6.38.15,10.5,5.33,18.51,5.33S72,162.44,80.75,162.26Z"/><path class="cls-2" d="M127.84,149.37c-6.54,0-13.64,5.82-21.76,5.82s-10.51-4.61-19.58-4.61c0,0-2.68-.14-3.47-.14s-3.46.14-3.46.14c-9.07,0-11.46,4.61-19.58,4.61s-15.22-5.82-21.76-5.82a21,21,0,0,0-8.67,2.27c1.4,1.68,2.88,3.29,4.41,4.85,3.73-1.44,7.76-3.21,11.64-3.21,6.54,0,10.65,6.22,18.77,6.22,8,0,14.29-4.89,23.05-5.1,8.75.21,15.1,5.1,23,5.1,8.13,0,12.23-6.22,18.77-6.22,4.51,0,9.24,2.38,13.46,3.87,1.21-1.2,2.33-2.48,3.45-3.75a15,15,0,0,1-2.54.27C138.39,153.67,134.38,149.37,127.84,149.37Z"/><path class="cls-2" d="M28,141.78c5.24,0,12.24-9.06,18.78-9.06s10.65,11.16,18.77,11.16c8,0,14.29-8.77,23-9.15,8.76.38,15.09,9.15,23,9.15,8.13,0,12.24-11.16,18.78-11.16s13.54,9.06,18.77,9.06c2.21,0,4.63-1.3,7.18-2.84a76.78,76.78,0,1,0-135.22.2C23.53,140.59,25.83,141.78,28,141.78Z"/><path class="cls-2" d="M125.56,164.46c-6.54,0-13.64,3.86-21.76,3.86s-10.52-3.06-19.58-3.06c0,0-2.67-.09-3.47-.09s-3.46.09-3.46.09c-9.07,0-11.46,3.06-19.58,3.06a46.32,46.32,0,0,1-12.06-2.08,76.65,76.65,0,0,0,87-.72A26.17,26.17,0,0,0,125.56,164.46Z"/><path class="cls-1" d="M61.16,76a14.7,14.7,0,1,0,14.69,14.7A14.7,14.7,0,0,0,61.16,76Z"/><path class="cls-1" d="M54,66.05a25.44,25.44,0,1,0,17.1,44.22,20.63,20.63,0,0,0,9.23-17.18,20.33,20.33,0,0,0-1.85-8.43A25.45,25.45,0,0,0,54,66.05Zm5.47,46A18.29,18.29,0,1,1,77.74,93.79,18.31,18.31,0,0,1,59.46,112.08Zm.25-39.61a20.62,20.62,0,0,0,0,41.24,20.44,20.44,0,0,0,7.67-1.51A23.65,23.65,0,1,1,77.84,83.5,20.54,20.54,0,0,0,59.71,72.47Z"/><path class="cls-1" d="M95.8,86.09a36.44,36.44,0,0,0-72.64,4.13,35.65,35.65,0,0,0,.2,3.75,32.54,32.54,0,0,0,.85,5.89,36.17,36.17,0,0,0,32.3,28.91c-1.23.78-2.47,1.51-3.71,2.17-.82.43,25.47-1.15,41,1.49L119,45.26A349.84,349.84,0,0,1,95.8,86.09ZM59.67,126.66h-.06A36.21,36.21,0,0,1,41.82,122a33.17,33.17,0,0,0,14.83,3.52,33.67,33.67,0,0,0,5.16-.44C61.1,125.61,60.39,126.15,59.67,126.66ZM89.59,95c-7.72,10.64-16.5,20.9-25.79,28.45a31.38,31.38,0,0,1-5.86.57A31.8,31.8,0,1,1,89.73,92.27C89.73,93.2,89.67,94.13,89.59,95Zm.32-.44C90,93.78,90,93,90,92.12A33.35,33.35,0,0,0,31.25,70.51,36,36,0,0,1,95.22,87C93.51,89.5,91.74,92.06,89.91,94.6Z"/><path class="cls-1" d="M120.6,45c4.91,4.91,18.29,34.16-22.82,87a85.17,85.17,0,0,1,46.73.21S179.37,79.41,120.6,45Z"/></svg>