<svg id="Calque_1" data-name="Calque 1" xmlns="http://www.w3.org/2000/svg" viewBox="0 0 39.86 72.79"><defs><style>.cls-1{fill:#364d5c;}.cls-2{fill:#f5dcd5;}</style></defs><title>maquette aepc</title><path class="cls-1" d="M20.43,1A19,19,0,0,1,38.85,20.43,19.35,19.35,0,0,1,38.42,24a.58.58,0,0,1-.26.35.51.51,0,0,1,0,.3L19.34,71.45a.55.55,0,0,1-.51.34l-.17,0-.14,0a.55.55,0,0,1-.51-.36L1.48,24.17v0A19.13,19.13,0,0,1,1,19.43,18.92,18.92,0,0,1,20.43,1ZM37.77,20.4a17.85,17.85,0,1,0-35.68-.94,17.54,17.54,0,0,0,.43,4.39L18.7,70.12,37.13,24.23a.51.51,0,0,1,.23-.25.41.41,0,0,1,0-.22A18,18,0,0,0,37.77,20.4Z"/><path class="cls-2" d="M20.4,2.09a17.84,17.84,0,0,1,17,21.67.41.41,0,0,0,0,.22.51.51,0,0,0-.23.25L18.7,70.12,2.52,23.85A17.84,17.84,0,0,1,7.65,7,17.73,17.73,0,0,1,20.4,2.09ZM33,18.91a13,13,0,1,0-13,13A13,13,0,0,0,33,18.91Z"/><path class="cls-1" d="M19.93,5.88a13,13,0,1,1-13,13A13,13,0,0,1,19.93,5.88Zm11.94,13A11.95,11.95,0,1,0,19.93,30.85,12,12,0,0,0,31.87,18.91Z"/></svg>