<svg xmlns="http://www.w3.org/2000/svg" viewBox="0 0 49.85 64.77"><defs><style>.cls-1{fill:none;stroke:#364d5c;stroke-miterlimit:10;stroke-width:2px;}.cls-2{fill:#f5dcd5;}</style></defs><title> notre asso</title><g id="Calque_3" data-name="Calque 3"><g id="Calque_2" data-name="Calque 2"><path class="cls-1" d="M31.38,62.73c-3-.41-5.45-2.14-7.58-4.09A68.1,68.1,0,0,1,2.62,22.39,10.91,10.91,0,0,1,2.24,20c-.1-1.59-.5-3.59,0-5.16.47-3.39,3-5.06,5.57-6.74.65-.43,1.19-.23,1.61.5,2.46,4.28,5,8.54,7.44,12.82.2.35.54.74-.1,1.15-1.25.8-1.58,2.22-2.16,3.46a6.29,6.29,0,0,0,0,3.93,46.92,46.92,0,0,0,3.94,10C20,43,25.66,46.82,29,46.79c.07,0,.16,0,.2,0,2.41-2.17,2.6.63,3.21,1.63,2.06,3.35,3.89,6.83,5.8,10.26.16.69.95,1.27.37,2.09a11.15,11.15,0,0,1-5.23,2A3.13,3.13,0,0,0,31.38,62.73Z"/><path class="cls-1" d="M47.84,55.38c0,.59,0,1-.36,1.29a18.68,18.68,0,0,1-5.42,3.2c-.86.34-1.59-.33-2.06-1.16q-3.81-6.63-7.64-13.23a2,2,0,0,1,.88-3.14c1-.53,1.94-1.13,2.92-1.69,2-1.15,2.76-1,3.92,1,2.47,4.2,4.89,8.43,7.32,12.66C47.62,54.67,47.93,55.06,47.84,55.38Z"/><path class="cls-1" d="M25.39,18.91a20.77,20.77,0,0,1-4.68,2.9,1.76,1.76,0,0,1-2.53-.87Q14.3,14.23,10.46,7.49a2,2,0,0,1,.79-3c1-.55,2-1.11,2.94-1.68C16.43,1.52,17,1.67,18.33,4Q22,10.4,25.67,16.84C25.39,17.5,25.74,18.25,25.39,18.91Z"/><path class="cls-2" d="M31.38,62.73c-3-.41-5.45-2.14-7.58-4.09A68.1,68.1,0,0,1,2.62,22.39,10.91,10.91,0,0,1,2.24,20c-.1-1.59-.5-3.59,0-5.16.47-3.39,3-5.06,5.57-6.74.65-.43,1.19-.23,1.61.5,2.46,4.28,5,8.54,7.44,12.82.2.35.54.74-.1,1.15-1.25.8-1.58,2.22-2.16,3.46a6.29,6.29,0,0,0,0,3.93,46.92,46.92,0,0,0,3.94,10C20,43,25.66,46.82,29,46.79c.07,0,.16,0,.2,0,2.41-2.17,2.6.63,3.21,1.63,2.06,3.35,3.89,6.83,5.8,10.26.16.69.95,1.27.37,2.09a11.15,11.15,0,0,1-5.23,2A3.13,3.13,0,0,0,31.38,62.73Z"/><path class="cls-2" d="M47.84,55.38c0,.59,0,1-.36,1.29a18.68,18.68,0,0,1-5.42,3.2c-.86.34-1.59-.33-2.06-1.16q-3.81-6.63-7.64-13.23a2,2,0,0,1,.88-3.14c1-.53,1.94-1.13,2.92-1.69,2-1.15,2.76-1,3.92,1,2.47,4.2,4.89,8.43,7.32,12.66C47.62,54.67,47.93,55.06,47.84,55.38Z"/><path class="cls-2" d="M25.39,18.91a20.77,20.77,0,0,1-4.68,2.9,1.76,1.76,0,0,1-2.53-.87Q14.3,14.23,10.46,7.49a2,2,0,0,1,.79-3c1-.55,2-1.11,2.94-1.68C16.43,1.52,17,1.67,18.33,4Q22,10.4,25.67,16.84C25.39,17.5,25.74,18.25,25.39,18.91Z"/></g></g></svg>